<?xml version="1.0" encoding="UTF-8" standalone="no"?>
<!-- Created with Inkscape (http://www.inkscape.org/) -->

<svg
   xmlns:dc="http://purl.org/dc/elements/1.1/"
   xmlns:cc="http://creativecommons.org/ns#"
   xmlns:rdf="http://www.w3.org/1999/02/22-rdf-syntax-ns#"
   xmlns:svg="http://www.w3.org/2000/svg"
   xmlns="http://www.w3.org/2000/svg"
   xmlns:sodipodi="http://sodipodi.sourceforge.net/DTD/sodipodi-0.dtd"
   xmlns:inkscape="http://www.inkscape.org/namespaces/inkscape"
   width="210mm"
   height="297mm"
   viewBox="0 0 210 297"
   version="1.1"
   id="svg849"
   inkscape:version="0.92.4 (5da689c313, 2019-01-14)"
   sodipodi:docname="drawing.svg">
  <defs
     id="defs843" />
  <sodipodi:namedview
     id="base"
     pagecolor="#ffffff"
     bordercolor="#666666"
     borderopacity="1.0"
     inkscape:pageopacity="0.0"
     inkscape:pageshadow="2"
     inkscape:zoom="0.49497475"
     inkscape:cx="734.55449"
     inkscape:cy="231.56154"
     inkscape:document-units="mm"
     inkscape:current-layer="layer1"
     showgrid="false"
     inkscape:window-width="1920"
     inkscape:window-height="1017"
     inkscape:window-x="-8"
     inkscape:window-y="-8"
     inkscape:window-maximized="1" />
  <metadata
     id="metadata846">
    <rdf:RDF>
      <cc:Work
         rdf:about="">
        <dc:format>image/svg+xml</dc:format>
        <dc:type
           rdf:resource="http://purl.org/dc/dcmitype/StillImage" />
        <dc:title></dc:title>
      </cc:Work>
    </rdf:RDF>
  </metadata>
  <g
     inkscape:label="Layer 1"
     inkscape:groupmode="layer"
     id="layer1">
    <path
       style="fill:none;stroke:#000000;stroke-width:0.27564657px;stroke-linecap:butt;stroke-linejoin:miter;stroke-opacity:1"
       d="m 38.262028,35.887402 v -8"
       id="path1413"
       inkscape:connector-curvature="0" />
    <path
       style="fill:none;stroke:#000000;stroke-width:0.26458332px;stroke-linecap:butt;stroke-linejoin:miter;stroke-opacity:1"
       d="m 43.467262,35.887402 v -6.80357"
       id="path1415"
       inkscape:connector-curvature="0" />
    <path
       style="fill:none;stroke:#000000;stroke-width:0.26458332px;stroke-linecap:butt;stroke-linejoin:miter;stroke-opacity:1"
       d="M 50.365328,35.887402 V 28.894841"
       id="path1417"
       inkscape:connector-curvature="0" />
    <path
       style="fill:none;stroke:#000000;stroke-width:0.26458332px;stroke-linecap:butt;stroke-linejoin:miter;stroke-opacity:1"
       d="M 58.302827,35.887402 V 28.80035"
       id="path1419"
       inkscape:connector-curvature="0" />
    <path
       style="fill:none;stroke:#000000;stroke-width:0.26458332px;stroke-linecap:butt;stroke-linejoin:miter;stroke-opacity:1"
       d="M 64.539432,35.887402 V 28.989339"
       id="path1421"
       inkscape:connector-curvature="0" />
    <path
       style="fill:none;stroke:#000000;stroke-width:0.26458332px;stroke-linecap:butt;stroke-linejoin:miter;stroke-opacity:1"
       d="M 70.209081,35.887402 V 29.083829"
       id="path1423"
       inkscape:connector-curvature="0" />
    <path
       style="fill:none;stroke:#000000;stroke-width:0.26458332px;stroke-linecap:butt;stroke-linejoin:miter;stroke-opacity:1"
       d="M 74.272321,35.887402 V 29.461808"
       id="path1425"
       inkscape:connector-curvature="0" />
    <path
       style="fill:#ffcea3;fill-opacity:1;stroke:none;stroke-width:1;stroke-linejoin:round;stroke-miterlimit:4;stroke-dasharray:none;stroke-opacity:1"
       d="m 38.26182,34.684704 c -2.769994,0 -4.999693,2.2297 -4.999693,4.999694 V 70.7378 l -5.501992,9.529133 -5.501989,9.529651 h 11.003981 v 22.664766 c 0,2.76999 2.229699,5.00021 4.999693,5.00021 h 10.024711 v 6.15001 c 0,2.77 2.229702,5.00022 4.999696,5.00022 h 6.63112 c 2.769994,0 5.000209,-2.23022 5.000209,-5.00022 v -6.15001 h 8.701278 c 2.769994,0 5.000212,-2.23022 5.000212,-5.00021 V 39.684398 c 0,-2.769994 -2.230218,-4.999694 -5.000212,-4.999694 z"
       id="rect1394"
       inkscape:connector-curvature="0" />
    <circle
       style="fill:#000000;fill-opacity:1;stroke:none;stroke-width:0.56339717;stroke-linejoin:round;stroke-miterlimit:4;stroke-dasharray:none;stroke-opacity:1"
       id="path1429"
       cx="40.618961"
       cy="65.763618"
       r="2.8045316" />
    <rect
       style="fill:#ff0000;fill-opacity:1;stroke:none;stroke-width:1.49821866;stroke-linejoin:round;stroke-miterlimit:4;stroke-dasharray:none;stroke-opacity:1"
       id="rect1435"
       width="40.166405"
       height="100.81298"
       x="36.651997"
       y="122.07481"
       rx="5"
       ry="3.2628601" />
    <path
       style="fill:#000000;fill-opacity:1;stroke:none;stroke-width:0.96536642;stroke-linejoin:round;stroke-miterlimit:4;stroke-dasharray:none;stroke-opacity:1"
       d="m 33.315869,47.639985 c -0.218393,0 -0.401304,0.139935 -0.469739,0.334346 -8.682344,1.359826 -16.522443,4.624922 -23.7685734,8.350395 0.8318341,3.370017 16.4914024,-0.638609 23.7386014,0.311092 v 0.259932 c 0,0.277 0.222711,0.49971 0.499711,0.49971 h 45.203958 c 0.277001,0 0.499711,-0.22271 0.499711,-0.49971 v -8.755536 c 0,-0.277 -0.22271,-0.500229 -0.499711,-0.500229 z"
       id="rect1439"
       inkscape:connector-curvature="0" />
    <path
       style="fill:#000000;fill-opacity:1;stroke:none;stroke-width:1;stroke-linejoin:round;stroke-miterlimit:4;stroke-dasharray:none;stroke-opacity:1"
       d="m 117.26578,265.13538 c -2.76999,0 -5.00021,2.23022 -5.00021,5.00021 v 4.2845 H 92.758235 c -2.77,0 -4.9997,2.23021 -4.9997,5.00021 v 7.7649 c 0,2.76999 2.2297,4.99969 4.9997,4.99969 h 27.420035 c 2.76999,0 4.99969,-2.2297 4.99969,-4.99969 v -7.7649 c 0,-1.13961 -0.38184,-2.18446 -1.01906,-3.02359 v -6.26112 c 0,-2.76999 -2.2297,-5.00021 -4.99969,-5.00021 z"
       id="rect1448"
       inkscape:connector-curvature="0" />
    <rect
       ry="9.8147964"
       rx="7.4698648"
       y="166.88818"
       x="107.54384"
       height="80.130966"
       width="23.434523"
       id="rect1456"
       style="fill:#000000;fill-opacity:1;stroke:none;stroke-width:1.71248925;stroke-linejoin:round;stroke-miterlimit:4;stroke-dasharray:none;stroke-opacity:1" />
  </g>
</svg>
